<svg width="42" height="42" viewBox="0 0 42 42" fill="none" xmlns="http://www.w3.org/2000/svg">
<path d="M20.9791 0.166504C9.47913 0.166504 0.166626 9.49984 0.166626 20.9998C0.166626 32.4998 9.47913 41.8332 20.9791 41.8332C32.5 41.8332 41.8333 32.4998 41.8333 20.9998C41.8333 9.49984 32.5 0.166504 20.9791 0.166504ZM21 37.6665C11.7916 37.6665 4.33329 30.2082 4.33329 20.9998C4.33329 11.7915 11.7916 4.33317 21 4.33317C30.2083 4.33317 37.6666 11.7915 37.6666 20.9998C37.6666 30.2082 30.2083 37.6665 21 37.6665ZM28.2916 18.9165C30.0208 18.9165 31.4166 17.5207 31.4166 15.7915C31.4166 14.0623 30.0208 12.6665 28.2916 12.6665C26.5625 12.6665 25.1666 14.0623 25.1666 15.7915C25.1666 17.5207 26.5625 18.9165 28.2916 18.9165ZM13.7083 18.9165C15.4375 18.9165 16.8333 17.5207 16.8333 15.7915C16.8333 14.0623 15.4375 12.6665 13.7083 12.6665C11.9791 12.6665 10.5833 14.0623 10.5833 15.7915C10.5833 17.5207 11.9791 18.9165 13.7083 18.9165ZM21 25.1665C16.1458 25.1665 12.0208 28.2082 10.3541 32.4582H31.6458C29.9791 28.2082 25.8541 25.1665 21 25.1665Z" fill="#FF355B"/>
</svg>
